<svg xmlns="http://www.w3.org/2000/svg" version="1.1" xmlns:xlink="http://www.w3.org/1999/xlink" xmlns:svgjs="http://svgjs.com/svgjs" width="512" height="512" x="0" y="0" viewBox="0 0 512.349 512" style="enable-background:new 0 0 512 512" xml:space="preserve" class=""><g><path d="m.727 283.379 30.539 193.336a43.027 43.027 0 0 0 17.41 28.64 37.067 37.067 0 0 0 21.332 6.825c2.344 0 4.68-.223 6.98-.672l402.739-77.832c22.027-5.313 36.043-26.938 31.898-49.211l-30.586-193.352a43.052 43.052 0 0 0-17.406-28.62 36.79 36.79 0 0 0-28.34-6.177l-26.547 5.121-120.5-138.308A34.03 34.03 0 0 0 265.54 1.656c-.05 0-.086-.066-.137-.094A16.91 16.91 0 0 0 262.98.84a29.281 29.281 0 0 0-6.828-.66 13.054 13.054 0 0 0-2.754.285c-15.773 1.273-28.578 13.262-30.882 28.918L92.246 222.645l-59.625 11.52C10.598 239.476-3.418 261.101.727 283.378zM256.152 17.246a17.071 17.071 0 0 1 16.54 13.04l.058.198a17.072 17.072 0 0 1-7.535 18.274 17.065 17.065 0 0 1-19.735-1.102 17.064 17.064 0 0 1-5.464-18.992 17.073 17.073 0 0 1 16.136-11.418zm-28.715 35.371a34.012 34.012 0 0 0 31.32 15.73 34.014 34.014 0 0 0 28.587-20.277l102.031 117.121-273.469 52.907zM78.77 242.63l-17.422 25.848a8.536 8.536 0 0 0 6.445 13.406 8.548 8.548 0 0 0 7.703-3.863l26.938-39.965L402.34 180.03l26.578 30.516a8.539 8.539 0 0 0 14.508-2.84 8.544 8.544 0 0 0-1.637-8.375l-20.082-23.039 16.82-3.25a19.266 19.266 0 0 1 3.696-.36 20.204 20.204 0 0 1 11.613 3.754 26.008 26.008 0 0 1 10.36 17.305l30.53 193.332c2.766 13.203-5.253 26.274-18.277 29.79L73.777 494.757a19.94 19.94 0 0 1-15.316-3.414 26.057 26.057 0 0 1-10.352-17.29l-30.53-193.34c-2.759-13.202 5.257-26.269 18.276-29.788zm0 0" fill="#b9b9b9" data-original="#000000" class=""></path><path d="M51.746 388.45a51.075 51.075 0 0 0 10.98 14.386 40.842 40.842 0 0 0 14.977 8.789 35.041 35.041 0 0 0 17.52 1.082 36.41 36.41 0 0 0 15.976-7.492 8.534 8.534 0 0 0-10.683-13.313 19.354 19.354 0 0 1-8.536 4.047c-3.02.578-6.132.38-9.054-.582a23.952 23.952 0 0 1-8.746-5.21 34.178 34.178 0 0 1-7.305-9.63 43.046 43.046 0 0 1-4.266-13.234 45.33 45.33 0 0 1 0-14.164 38.04 38.04 0 0 1 4-12.024 27.493 27.493 0 0 1 6.829-8.43 19.439 19.439 0 0 1 8.535-4.046 18.178 18.178 0 0 1 9.078.582c4.488 1.437 9.293-1.04 10.73-5.527a8.533 8.533 0 0 0-5.527-10.73 35.205 35.205 0 0 0-17.516-1.083 36.325 36.325 0 0 0-15.984 7.5 44.502 44.502 0 0 0-11.203 13.61 54.995 54.995 0 0 0-5.828 17.417 61.52 61.52 0 0 0 0 19.559 59.806 59.806 0 0 0 6.023 18.492zM131.867 402.953a8.513 8.513 0 0 0 6.508 1.39l37.992-7.335c4.63-.895 7.656-5.371 6.762-9.996a8.537 8.537 0 0 0-9.996-6.766l-29.32 5.668-11.946-75.332c-.37-3.105-2.406-5.762-5.312-6.922s-6.211-.637-8.618 1.363-3.523 5.153-2.917 8.22l13.27 84.054a8.529 8.529 0 0 0 3.577 5.656zM196.316 382.234a34.491 34.491 0 0 0 19.782 6.52c1.964.004 3.925-.18 5.855-.555 21.59-4.18 34.984-29.48 30.567-57.617a55.629 55.629 0 0 0-21.43-37.246 33.543 33.543 0 0 0-25.598-5.973c-21.59 4.18-34.988 29.48-30.558 57.617a55.56 55.56 0 0 0 21.382 37.254zm12.368-78.097a13.905 13.905 0 0 1 2.668-.254c3.582.097 7.05 1.289 9.933 3.414a39.132 39.132 0 0 1 14.387 25.95c2.894 18.362-4.871 35.839-16.953 38.194a16.57 16.57 0 0 1-12.606-3.175 39.18 39.18 0 0 1-14.379-25.899c-2.902-18.406 4.864-35.89 16.95-38.23zM266.574 317.21a28.783 28.783 0 0 0 7.262 8.337 27.064 27.064 0 0 0 9.871 4.867 25.806 25.806 0 0 0 11.383.332 9.277 9.277 0 0 1 3.933.11c1.32.347 2.551.964 3.622 1.808a12.087 12.087 0 0 1 2.992 3.457 14.09 14.09 0 0 1 1.707 4.926 14.843 14.843 0 0 1-.145 5.398 13.759 13.759 0 0 1-1.836 4.61 11.842 11.842 0 0 1-3.113 3.32 9.463 9.463 0 0 1-3.781 1.637 8.886 8.886 0 0 1-3.914-.102 10.003 10.003 0 0 1-3.637-1.808 11.923 11.923 0 0 1-2.977-3.457 8.535 8.535 0 0 0-14.722 8.601 29.008 29.008 0 0 0 7.261 8.32 26.606 26.606 0 0 0 9.875 4.872 25.9 25.9 0 0 0 11.391.335 26.455 26.455 0 0 0 10.461-4.515 28.817 28.817 0 0 0 7.59-8.047 30.923 30.923 0 0 0 4.144-10.281c.805-3.801.903-7.715.29-11.547a31.082 31.082 0 0 0-3.848-10.863 28.783 28.783 0 0 0-7.262-8.336 26.775 26.775 0 0 0-9.855-4.864 26.052 26.052 0 0 0-11.399-.336 8.697 8.697 0 0 1-3.91-.109 9.915 9.915 0 0 1-3.644-1.809 12.011 12.011 0 0 1-2.985-3.414 14.102 14.102 0 0 1-1.707-4.933 14.89 14.89 0 0 1 .129-5.375c.34-1.649.973-3.223 1.867-4.649a11.752 11.752 0 0 1 3.082-3.297 9.596 9.596 0 0 1 3.778-1.644 8.972 8.972 0 0 1 3.933.101c1.32.352 2.555.965 3.63 1.81 1.21.948 2.226 2.12 2.995 3.456a8.525 8.525 0 0 0 7.434 4.371 8.531 8.531 0 0 0 7.3-12.973 28.978 28.978 0 0 0-7.269-8.335 26.941 26.941 0 0 0-9.871-4.868 26.056 26.056 0 0 0-11.387-.324 26.73 26.73 0 0 0-10.46 4.516 28.667 28.667 0 0 0-7.579 8.047 31.305 31.305 0 0 0-4.164 10.308 32.079 32.079 0 0 0-.273 11.52 30.992 30.992 0 0 0 3.808 10.828zM334.488 314.438l6.59 41.738a8.531 8.531 0 0 0 8.422 7.21c.543 0 1.086-.054 1.621-.163l37.98-7.336c4.63-.899 7.657-5.375 6.758-10.004a8.533 8.533 0 0 0-10-6.758l-29.312 5.668-3.969-25.168 14.688-2.832a8.531 8.531 0 0 0 6.765-9.992 8.531 8.531 0 0 0-9.992-6.766l-14.121 2.73-3.977-25.163 29.868-5.778a8.533 8.533 0 0 0 6.765-9.992 8.534 8.534 0 0 0-9.992-6.77l-37.992 7.348c-4.52.867-7.543 5.164-6.824 9.711l6.691 42.317zM417.879 350.16h.262a55.47 55.47 0 0 0 37.836-17.808 51.86 51.86 0 0 0 9.242-42.891 49.15 49.15 0 0 0-21.973-37.121 53.462 53.462 0 0 0-41.59-2.781 8.53 8.53 0 0 0-5.511 9.386l13.277 84.063a8.536 8.536 0 0 0 8.457 7.152zm16.73-83.125a33.29 33.29 0 0 1 13.793 25.078 35.847 35.847 0 0 1-5.496 29.262 33.71 33.71 0 0 1-17.922 10.504l-10.718-67.84a31.603 31.603 0 0 1 20.343 2.996zm0 0" fill="#b9b9b9" data-original="#000000" class=""></path></g></svg>