<?xml version="1.0" encoding="UTF-8"?>
<svg width="22px" height="22px" viewBox="0 0 22 22" version="1.1" xmlns="http://www.w3.org/2000/svg" xmlns:xlink="http://www.w3.org/1999/xlink">
    <title>gps</title>
    <g id="Page-1" stroke="none" stroke-width="1" fill="none" fill-rule="evenodd">
        <g id="Artboard" transform="translate(-340.000000, -209.000000)" fill="#38B432" fill-rule="nonzero">
            <g id="gps" transform="translate(340.000000, 209.000000)">
                <path d="M20.75,10 L18.71,10 C18.35,6.19 15.31,3.14 11.5,2.79 L11.5,0.75 C11.5,0.34 11.16,0 10.75,0 C10.34,0 10,0.34 10,0.75 L10,2.79 C6.19,3.15 3.14,6.19 2.79,10 L0.75,10 C0.34,10 0,10.34 0,10.75 C0,11.16 0.34,11.5 0.75,11.5 L2.79,11.5 C3.15,15.31 6.19,18.36 10,18.71 L10,20.75 C10,21.16 10.34,21.5 10.75,21.5 C11.16,21.5 11.5,21.16 11.5,20.75 L11.5,18.71 C15.31,18.35 18.36,15.31 18.71,11.5 L20.75,11.5 C21.16,11.5 21.5,11.16 21.5,10.75 C21.5,10.34 21.16,10 20.75,10 Z M10.75,13.87 C9.03,13.87 7.63,12.47 7.63,10.75 C7.63,9.03 9.03,7.63 10.75,7.63 C12.47,7.63 13.87,9.03 13.87,10.75 C13.87,12.47 12.47,13.87 10.75,13.87 Z" id="Shape"></path>
            </g>
        </g>
    </g>
</svg>