<?xml version="1.0" encoding="UTF-8"?>
<svg width="18px" height="21px" viewBox="0 0 18 21" version="1.1" xmlns="http://www.w3.org/2000/svg" xmlns:xlink="http://www.w3.org/1999/xlink">
    <title>location</title>
    <g id="Page-1" stroke="none" stroke-width="1" fill="none" fill-rule="evenodd">
        <g id="Artboard" transform="translate(-174.000000, -242.000000)" fill="#00C2E8" fill-rule="nonzero">
            <g id="location" transform="translate(174.000000, 242.000000)">
                <path d="M17.5,6.7 C16.4500082,2.08 12.4200082,0 8.8800082,0 C8.8800082,0 8.8800082,0 8.8700082,0 C5.3399782,0 1.2999782,2.07 0.249978204,6.69 C-0.920021796,11.85 2.2399782,16.22 5.0999782,18.97 C6.1599782,19.99 7.5200082,20.5 8.8800082,20.5 C10.2400082,20.5 11.6000082,19.99 12.6500082,18.97 C15.5100082,16.22 18.6700082,11.86 17.5,6.7 Z M8.8800082,11.71 C7.1400082,11.71 5.7299782,10.3 5.7299782,8.56 C5.7299782,6.82 7.1400082,5.41 8.8800082,5.41 C10.6200082,5.41 12.0300082,6.82 12.0300082,8.56 C12.0300082,10.3 10.6200082,11.71 8.8800082,11.71 Z" id="Shape"></path>
            </g>
        </g>
    </g>
</svg>