<?xml version="1.0" encoding="UTF-8"?>
<svg width="19px" height="20px" viewBox="0 0 19 20" version="1.1" xmlns="http://www.w3.org/2000/svg" xmlns:xlink="http://www.w3.org/1999/xlink">
    <title>timer-start</title>
    <g id="Page-1" stroke="none" stroke-width="1" fill="none" fill-rule="evenodd">
        <g id="Artboard" transform="translate(-304.000000, -333.000000)" fill="#EC6533" fill-rule="nonzero">
            <g id="timer-start" transform="translate(304.000000, 333.000000)">
                <path d="M11.56052,1.45 L5.78054,1.45 C5.38054,1.45 5.06054,1.13 5.06054,0.73 C5.06054,0.33 5.38054,0 5.78054,0 L11.56052,0 C11.96052,0 12.28052,0.32 12.28052,0.72 C12.28052,1.12 11.96052,1.45 11.56052,1.45 Z" id="Path"></path>
                <path d="M16.63992,13 L13.69992,13 C12.42992,13 11.66992,13.76 11.66992,15.03 L11.66992,17.97 C11.66992,19.24 12.42992,20 13.69992,20 L16.63992,20 C17.90992,20 18.66992,19.24 18.66992,17.97 L18.66992,15.03 C18.66992,13.76 17.90992,13 16.63992,13 Z M16.35992,17.46 L15.17992,18.14 C14.93992,18.28 14.69992,18.35 14.47992,18.35 C14.30992,18.35 14.15992,18.31 14.01992,18.23 C13.69992,18.04 13.51992,17.67 13.51992,17.18 L13.51992,15.82 C13.51992,15.33 13.69992,14.96 14.01992,14.77 C14.33992,14.58 14.74992,14.62 15.17992,14.86 L16.35992,15.54 C16.77992,15.79 17.01992,16.13 17.01992,16.5 C17.01992,16.87 16.78992,17.21 16.35992,17.46 Z" id="Shape"></path>
                <path d="M10.67002,17.9684 L10.67002,15.0284 C10.67002,13.2184 11.89002,11.9984 13.70002,11.9984 L16.64002,11.9984 C16.87002,11.9984 17.09002,12.0184 17.30002,12.0584 C17.32002,11.8184 17.34002,11.5784 17.34002,11.3284 C17.34002,6.53844 13.45002,2.64844 8.67002,2.64844 C3.89,2.64844 0,6.53844 0,11.3284 C0,16.1084 3.89,19.9984 8.67002,19.9984 C9.52002,19.9984 10.33002,19.8584 11.11002,19.6384 C10.83002,19.1684 10.67002,18.6084 10.67002,17.9684 Z M9.42002,10.9984 C9.42002,11.4084 9.08002,11.7484 8.67002,11.7484 C8.26002,11.7484 7.92002,11.4084 7.92002,10.9984 L7.92002,5.99844 C7.92002,5.58844 8.26002,5.24844 8.67002,5.24844 C9.08002,5.24844 9.42002,5.58844 9.42002,5.99844 L9.42002,10.9984 Z" id="Shape"></path>
            </g>
        </g>
    </g>
</svg>