<?xml version="1.0" encoding="UTF-8"?>
<svg width="6154px" height="4356px" viewBox="0 0 6154 4356" version="1.1" xmlns="http://www.w3.org/2000/svg" xmlns:xlink="http://www.w3.org/1999/xlink">
    <title>wolt-becycle</title>
    <g id="wolt-becycle" stroke="none" stroke-width="1" fill="none" fill-rule="evenodd">
        <path d="M6154,4212.09 C6154,4274.57 4776.38,4356 3077,4356 C1377.62,4356 0,4286.99 0,4224.51 C0,4162.03 1377.62,4138.73 3077,4138.73 C4776.38,4138.73 6154,4149.61 6154,4212.09" id="Fill-1" fill="#DDDDDD"></path>
        <path d="M5495.03,4157.13 C5495.03,4167.31 4473.19,4175.56 3212.7,4175.56 C1952.2,4175.56 930.365,4167.31 930.365,4157.13 C930.365,4146.95 1952.2,4138.7 3212.7,4138.7 C4473.19,4138.7 5495.03,4146.95 5495.03,4157.13" id="Fill-3" fill="#151426"></path>
        <path d="M3427,966.505 C3427,966.505 2992.76,1413.91 2969.54,1420.88 C2946.32,1427.85 2923.26,1447.08 2899.84,1461.33 C2731.05,1564.01 2578.29,1614.12 2461.39,1650.39 C2401.31,1690.69 2378.05,1721.13 2332.56,1734.89 C2332.56,1734.89 2224.21,1755.58 2202.4,1715.53 C2180.6,1675.48 2195.54,1547.09 2214.74,1545.65 C2233.94,1544.2 2423.3,1560.34 2423.3,1560.34 C2579.72,1526.52 2722.78,1324.26 2855.73,1238.65 L3219.01,789.87 L3427,966.505" id="Fill-4" fill="#E87A6B"></path>
        <path d="M3141.43,1302.64 L3534.45,928.892 L3290.46,633.677 C3199.19,809.396 3067.92,961.876 2915.77,1139.59 C2964.23,1221.69 3051.59,1271.69 3141.43,1302.64" id="Fill-5" fill="#03A7C7"></path>
        <path d="M3123.18,1327.41 C3033.34,1296.46 2944.76,1234.52 2896.3,1152.42 L2946.83,1096.95 C3005.38,1180.73 3098.22,1242.52 3181.06,1271.55 L3123.18,1327.41" id="Fill-6" fill="#0086A0"></path>
        <path d="M3434.09,2976.18 C3499.22,2984.73 3629.53,2911.83 3644.92,2869.44 C3657.52,2834.73 3464.6,2475.68 3394.2,2346.56 C3388.54,2336.19 3392.65,2327.29 3388.75,2320.17 C3381.89,2307.67 3369.02,2300.63 3369.02,2300.63 C3377.33,2296.82 3385.73,2299.86 3394.21,2295.45 C3402.63,2291.06 3411.14,2279.24 3419.71,2274.31 C3571.77,2186.9 3745.15,2017.8 3877.83,1904.91 C3877.83,1904.91 2947.23,1953.68 2947.23,2218.5 C2947.23,2301.36 3368.97,2967.63 3434.09,2976.18" id="Fill-7" fill="#685C5C"></path>
        <path d="M3636.29,2934.14 L3726.34,3085.71 L3773.45,3118.47 C3805.45,3211.7 3659.31,3170.57 3576.74,3164.42 C3598.84,3107.17 3523.24,3043.42 3475.32,2982.63 L3636.29,2934.14" id="Fill-8" fill="#E87A6B"></path>
        <path d="M3773.45,3118.47 C3840.19,3180.84 3842.96,3241.08 3842.96,3241.08 C3652.26,3338.07 3300.49,3445.51 3287.03,3399.68 C3278.12,3343.01 3324.35,3342.04 3400.2,3296.02 C3489,3242.15 3508.32,3126.14 3573.14,3107.17 C3645.61,3125.49 3657.3,3216.22 3773.45,3118.47" id="Fill-9" fill="#0086A0"></path>
        <path d="M3397.59,3314.2 C3468.98,3298.66 3616.67,3143.91 3620.9,3137.24 C3622.29,3135.05 3621.71,3132.05 3619.6,3130.52 C3617.49,3129 3614.66,3129.55 3613.28,3131.72 C3612.24,3133.37 3451.48,3313.18 3375.5,3310.11 C3363.83,3309.63 3366.08,3323.45 3397.59,3314.2" id="Fill-10" fill="#FFFFFF"></path>
        <path d="M3875.94,3263.07 C3834.29,3300.6 3754.61,3305.68 3735.41,3315.07 C3680.3,3342.05 3545.02,3389.13 3499.99,3402.21 C3399.52,3431.39 3297.22,3442.85 3293.74,3430.98 C3288.45,3416.45 3284.49,3402.56 3285.85,3391.25 C3495,3394.97 3641.04,3275.74 3694.91,3248.76 C3729.26,3231.55 3806.27,3229.18 3841.92,3218.71 C3848.98,3223.25 3871.87,3240.06 3875.94,3263.07" id="Fill-11" fill="#EAEAEA"></path>
        <path d="M3697.77,3017.82 C3686.81,3041.19 3578.44,3102.61 3549.52,3104.11 C3517.83,3105.76 3430.92,2941.76 3430.92,2941.76 L3622.39,2848.24 C3622.39,2848.24 3702.64,3007.44 3697.77,3017.82" id="Fill-12" fill="#685C5C"></path>
        <path d="M3661.01,3428.22 L3863.81,3351.26 C3884.33,3343.47 3894.65,3320.53 3886.87,3300.01 C3879.08,3279.49 3856.13,3269.17 3835.61,3276.95 L3632.82,3353.91 C3612.3,3361.7 3601.97,3384.64 3609.76,3405.16 C3617.55,3425.68 3640.5,3436.01 3661.01,3428.22" id="Fill-13" fill="#B9BDC1"></path>
        <path d="M3718.38,3363.94 C3724.58,3380.26 3742.83,3388.47 3759.15,3382.28 C3775.47,3376.09 3783.68,3357.84 3777.49,3341.52 C3771.29,3325.19 3753.04,3316.98 3736.72,3323.18 C3720.4,3329.37 3712.19,3347.62 3718.38,3363.94" id="Fill-14" fill="#151426"></path>
        <path d="M3801.13,3332.54 C3804.4,3341.16 3814.04,3345.5 3822.65,3342.23 C3831.27,3338.96 3835.6,3329.32 3832.33,3320.7 C3829.06,3312.08 3819.43,3307.75 3810.81,3311.02 C3802.19,3314.29 3797.86,3323.93 3801.13,3332.54" id="Fill-15" fill="#151426"></path>
        <path d="M3663.54,3384.76 C3666.81,3393.37 3676.44,3397.71 3685.06,3394.44 C3693.68,3391.17 3698.01,3381.53 3694.74,3372.91 C3691.47,3364.3 3681.84,3359.96 3673.22,3363.23 C3664.6,3366.5 3660.27,3376.14 3663.54,3384.76" id="Fill-16" fill="#151426"></path>
        <path d="M3247.98,3476.68 L3754.26,3383.72 C3771.48,3380.56 3782.87,3364.04 3779.71,3346.82 C3776.55,3329.6 3760.03,3318.2 3742.81,3321.37 L3236.53,3414.32 C3219.31,3417.48 3207.92,3434 3211.08,3451.22 C3214.24,3468.44 3230.76,3479.84 3247.98,3476.68" id="Fill-17" fill="#A5AAAD"></path>
        <path d="M3231.36,3451.61 C3235.76,3463.21 3248.73,3469.05 3260.33,3464.65 C3271.93,3460.24 3277.77,3447.27 3273.37,3435.67 C3268.96,3424.07 3255.99,3418.24 3244.39,3422.64 C3232.79,3427.04 3226.96,3440.01 3231.36,3451.61" id="Fill-18" fill="#151426"></path>
        <polyline id="Fill-19" fill="#B9BDC1" points="3357.63 3330.29 3351.53 3328.4 3501.86 2842.29 3507.96 2844.18 3357.63 3330.29"></polyline>
        <path d="M4259.28,3226.49 C4258.14,3226.49 4257.03,3225.88 4256.46,3224.79 C4224.85,3165.06 4200.69,3150.06 4156.83,3122.82 C4118.85,3099.24 4066.83,3066.93 3984.07,2989.03 C3816.31,2819.78 3725.98,2714.38 3666.21,2644.63 C3582.59,2547.05 3567.52,2529.47 3495.97,2520 C3494.22,2519.76 3492.99,2518.16 3493.22,2516.41 C3493.46,2514.66 3495.01,2513.44 3496.81,2513.66 C3570.78,2523.45 3588.06,2543.61 3671.07,2640.47 C3730.77,2710.15 3821.01,2815.44 3988.53,2984.45 C4070.75,3061.84 4122.45,3093.95 4160.21,3117.39 C4203.53,3144.3 4229.69,3160.55 4262.1,3221.8 C4262.931,3223.36 4262.33,3225.29 4260.77,3226.12 C4260.3,3226.37 4259.79,3226.49 4259.28,3226.49" id="Fill-20" fill="#151426"></path>
        <path d="M2273.28,2169.8 L2273.12,2169.79 C2150.12,2163.66 2055.68,2101 2026.66,2006.25 C1999.1,1916.28 2037.53,1818.66 2126.95,1751.48 C2128.36,1750.42 2130.37,1750.71 2131.43,1752.12 C2132.49,1753.53 2132.2,1755.53 2130.79,1756.59 C2043.58,1822.11 2006.02,1917.05 2032.77,2004.39 C2060.98,2096.48 2153.2,2157.42 2273.43,2163.41 C2275.2,2163.5 2276.56,2165 2276.47,2166.76 C2276.38,2168.47 2274.97,2169.8 2273.28,2169.8" id="Fill-21" fill="#151426"></path>
        <path d="M1791.99,3183.41 C1790.92,3183.41 1789.86,3182.87 1789.26,3181.88 C1788.34,3180.37 1788.82,3178.41 1790.33,3177.49 C2028.43,3032.58 2003.79,2709.08 1979.97,2396.24 C1957.92,2106.71 1937.1,1833.24 2134.76,1739.04 C2136.36,1738.29 2138.26,1738.97 2139.02,1740.55 C2139.78,1742.15 2139.1,1744.05 2137.51,1744.81 C1943.8,1837.12 1964.47,2108.47 1986.35,2395.76 C2010.31,2710.52 2035.1,3036 1793.65,3182.95 C1793.13,3183.26 1792.56,3183.41 1791.99,3183.41" id="Fill-22" fill="#151426"></path>
        <path d="M3253.36,3250.31 C3248.14,3250.31 3243.87,3246.13 3243.77859,3240.89 C3243.69,3235.6 3247.91,3231.23 3253.2,3231.14 L4259.11,3213.71 C4264.3,3213.52 4268.77,3217.84 4268.86142,3223.13 C4268.95,3228.43 4264.74,3232.79 4259.45,3232.88 L3253.53,3250.31 L3253.36,3250.31" id="Fill-23" fill="#151426"></path>
        <path d="M4209.37,3742.01 C4209.01,3742.01 4208.65,3741.99 4208.28,3741.95 L3251.18,3634.07 C3245.92,3633.48 3242.13,3628.73 3242.73,3623.47 C3243.32,3618.21 3248.09,3614.42 3253.33,3615.02 L4210.431,3722.89 C4215.69,3723.49 4219.48,3728.23 4218.891,3733.5 C4218.33,3738.39 4214.181,3742.01 4209.37,3742.01" id="Fill-24" fill="#151426"></path>
        <path d="M4269.52,3467.3 C4211.27,3467.3 4164.04,3420.08 4164.04,3361.82 C4164.04,3303.57 4211.27,3256.34 4269.52,3256.34 C4327.78,3256.34 4375.01,3303.57 4375.01,3361.82 C4375.01,3420.08 4327.78,3467.3 4269.52,3467.3 Z M4269.52,3128.77 C4140.82,3128.77 4036.48,3233.11 4036.48,3361.82 C4036.48,3490.53 4140.82,3594.87 4269.52,3594.87 C4398.23,3594.87 4502.57,3490.53 4502.57,3361.82 C4502.57,3233.11 4398.23,3128.77 4269.52,3128.77 L4269.52,3128.77 Z" id="Fill-25" fill="#B9BDC1"></path>
        <path d="M1706.44,4044.16 C1329.6,4044.16 1024.1,3738.67 1024.1,3361.82 C1024.1,2984.97 1329.6,2679.48 1706.44,2679.48 C2083.29,2679.48 2388.78,2984.97 2388.78,3361.82 C2388.78,3738.67 2083.29,4044.16 1706.44,4044.16 Z M1706.44,2572.98 C1270.78,2572.98 917.605,2926.16 917.605,3361.82 C917.605,3797.48 1270.78,4150.66 1706.44,4150.66 C2142.11,4150.66 2495.28,3797.48 2495.28,3361.82 C2495.28,2926.16 2142.11,2572.98 1706.44,2572.98 L1706.44,2572.98 Z" id="Fill-26" fill="#151426"></path>
        <path d="M1706.44,3994.1 C1357.24,3994.1 1074.16,3711.02 1074.16,3361.82 C1074.16,3012.62 1357.24,2729.54 1706.44,2729.54 C2055.64,2729.54 2338.73,3012.62 2338.73,3361.82 C2338.73,3711.02 2055.64,3994.1 1706.44,3994.1 Z M1706.44,2679.48 C1329.6,2679.48 1024.1,2984.97 1024.1,3361.82 C1024.1,3738.67 1329.6,4044.16 1706.44,4044.16 C2083.29,4044.16 2388.78,3738.67 2388.78,3361.82 C2388.78,2984.97 2083.29,2679.48 1706.44,2679.48 L1706.44,2679.48 Z" id="Fill-27" fill="#4C4860"></path>
        <path d="M1706.44,3479.25 C1641.59,3479.25 1589.02,3426.67 1589.02,3361.82 C1589.02,3296.97 1641.59,3244.39 1706.44,3244.39 C1771.29,3244.39 1823.87,3296.97 1823.87,3361.82 C1823.87,3426.67 1771.29,3479.25 1706.44,3479.25 Z M1706.44,3140.42 C1584.17,3140.42 1485.05,3239.55 1485.05,3361.82 C1485.05,3484.09 1584.17,3583.22 1706.44,3583.22 C1828.72,3583.22 1927.84,3484.09 1927.84,3361.82 C1927.84,3239.55 1828.72,3140.42 1706.44,3140.42 L1706.44,3140.42 Z" id="Fill-28" fill="#B9BDC1"></path>
        <path d="M1706.44,3283.56 C1663.22,3283.56 1628.19,3318.6 1628.19,3361.82 C1628.19,3405.04 1663.22,3440.08 1706.44,3440.08 C1749.66,3440.08 1784.7,3405.04 1784.7,3361.82 C1784.7,3318.6 1749.66,3283.56 1706.44,3283.56" id="Fill-29" fill="#151426"></path>
        <path d="M3536.08,2609.92 C3530.74,2609.92 3525.32,2609.02 3520,2607.13 L2246.87,2153.66 C2221.93,2144.78 2208.92,2117.36 2217.8,2092.43 C2226.69,2067.49 2254.1,2054.5 2279.03,2063.36 L3552.16,2516.83 C3577.1,2525.71 3590.11,2553.12 3581.23,2578.06 C3574.24,2597.68 3555.78,2609.92 3536.08,2609.92" id="Fill-30" fill="#00C2E8"></path>
        <polyline id="Fill-31" fill="#03A7C7" points="3525.05 2507.17 3074.14 2346.56 3044.74 2437.85 3496.39 2598.72 3525.05 2507.17"></polyline>
        <polyline id="Fill-32" fill="#0086A0" points="3476.23 2591.54 3505.58 2500.24 3476 2489.7 3438.52 2578.11 3476.23 2591.54"></polyline>
        <path d="M3252.53,3492.13 C3237.62,3492.13 3222.93,3485.2 3213.57,3472.17 L2257.23,2141.93 C2241.77,2120.43 2246.67,2090.48 2268.16,2075.03 C2289.66,2059.59 2319.61,2064.49 2335.06,2085.97 L3291.4,3416.22 C3306.85,3437.71 3301.96,3467.66 3280.46,3483.11 C3272,3489.2 3262.22,3492.13 3252.53,3492.13" id="Fill-33" fill="#00C2E8"></path>
        <path d="M3252.52,3492.12 C3238.14,3492.12 3223.93,3485.69 3214.49,3473.41 L2220.58,2180.73 C2204.44,2159.75 2208.37,2129.65 2229.36,2113.52 C2250.34,2097.38 2280.43,2101.31 2296.57,2122.3 L3290.48,3414.98 C3306.62,3435.96 3302.69,3466.06 3281.7,3482.19 C3272.99,3488.88 3262.71,3492.12 3252.52,3492.12" id="Fill-34" fill="#00C2E8"></path>
        <polyline id="Fill-35" fill="#0086A0" points="3214.49 3473.41 2220.58 2180.73 2246.87 2153.66 3227.01 3446.26 3214.49 3473.41"></polyline>
        <path d="M2205.27,2295.33 C2201.15,2295.33 2196.97,2294.54 2192.94,2292.85 C2176.66,2286.03 2168.99,2267.32 2175.8,2251.04 L2353.16,1816.32 C2359.98,1800.05 2378.7,1792.38 2394.98,1799.19 C2411.25,1806 2418.92,1824.72 2412.11,1841 L2234.75,2275.71 C2229.63,2287.96 2217.76,2295.33 2205.27,2295.33" id="Fill-36" fill="#151426"></path>
        <path d="M4269.52,4044.16 C3892.68,4044.16 3587.19,3738.67 3587.19,3361.82 C3587.19,2984.97 3892.68,2679.48 4269.52,2679.48 C4646.37,2679.48 4951.86,2984.97 4951.86,3361.82 C4951.86,3738.67 4646.37,4044.16 4269.52,4044.16 Z M4269.52,2572.98 C3833.86,2572.98 3480.69,2926.16 3480.69,3361.82 C3480.69,3797.48 3833.86,4150.66 4269.52,4150.66 C4705.19,4150.66 5058.36,3797.48 5058.36,3361.82 C5058.36,2926.16 4705.19,2572.98 4269.52,2572.98 L4269.52,2572.98 Z" id="Fill-37" fill="#151426"></path>
        <path d="M4269.52,3994.1 C3920.32,3994.1 3637.24,3711.02 3637.24,3361.82 C3637.24,3012.62 3920.32,2729.54 4269.52,2729.54 C4618.73,2729.54 4901.81,3012.62 4901.81,3361.82 C4901.81,3711.02 4618.73,3994.1 4269.52,3994.1 Z M4269.52,2679.48 C3892.68,2679.48 3587.19,2984.97 3587.19,3361.82 C3587.19,3738.67 3892.68,4044.16 4269.52,4044.16 C4646.37,4044.16 4951.86,3738.67 4951.86,3361.82 C4951.86,2984.97 4646.37,2679.48 4269.52,2679.48 L4269.52,2679.48 Z" id="Fill-38" fill="#4C4860"></path>
        <path d="M4269.52,3444.2 C4224.03,3444.2 4187.15,3407.32 4187.15,3361.82 C4187.15,3316.33 4224.03,3279.44 4269.52,3279.44 C4315.021,3279.44 4351.9,3316.33 4351.9,3361.82 C4351.9,3407.32 4315.021,3444.2 4269.52,3444.2 Z M4269.52,3179.82 C4169.01,3179.82 4087.53,3261.3 4087.53,3361.82 C4087.53,3462.34 4169.01,3543.82 4269.52,3543.82 C4370.04,3543.82 4451.521,3462.34 4451.521,3361.82 C4451.521,3261.3 4370.04,3179.82 4269.52,3179.82 L4269.52,3179.82 Z" id="Fill-39" fill="#151426"></path>
        <path d="M4269.52,3279.44 C4224.03,3279.44 4187.15,3316.33 4187.15,3361.82 C4187.15,3407.32 4224.03,3444.2 4269.52,3444.2 C4315.021,3444.2 4351.9,3407.32 4351.9,3361.82 C4351.9,3316.33 4315.021,3279.44 4269.52,3279.44" id="Fill-40" fill="#4C4860"></path>
        <path d="M1706.43,3387.39 C1703.14,3387.39 1699.8,3386.75 1696.57,3385.4 C1683.55,3379.95 1671.02,3364.97 1676.47,3351.95 L2055.92,2445.34 C2061.37,2432.31 2082.74,2426.16 2095.76,2431.63 C2108.79,2437.08 2121.32,2452.05 2115.86,2465.07 L1736.41,3371.69 C1732.31,3381.49 1716.43,3387.39 1706.43,3387.39" id="Fill-41" fill="#B9BDC1"></path>
        <polyline id="Fill-42" fill="#A5AAAD" points="1723.63 3365.3 2103.08 2458.68 2083.91 2458.68 1704.46 3365.3 1723.63 3365.3"></polyline>
        <path d="M2132.13,2459.81 L2068.09,2431.61 L2255.18,1984.86 L2364.29,2031.93 L2196.09,2433.6 C2185.66,2458.5 2157.03,2470.23 2132.13,2459.81" id="Fill-43" fill="#00C2E8"></path>
        <polyline id="Fill-44" fill="#CBCED1" points="2105.57 2451.11 2076.22 2438.18 2077.28 2435.65 2106.63 2448.58 2105.57 2451.11"></polyline>
        <polyline id="Fill-45" fill="#03A7C7" points="2106.63 2448.58 2077.28 2435.65 2265.04 1989.12 2293.94 2001.58 2106.63 2448.58"></polyline>
        <polyline id="Fill-46" fill="#151426" points="2366.21 2040.04 2248.21 1989.78 2265.68 1948.77 2383.67 1999.03 2366.21 2040.04"></polyline>
        <path d="M1687.57,3406.23 L1687.57,3406.23 C1663.15,3396.01 1651.64,3367.92 1661.87,3343.5 L1955.24,2643.24 L2043.66,2680.25 L1750.28,3380.54 C1740.06,3404.95 1711.98,3416.45 1687.57,3406.23" id="Fill-47" fill="#151426"></path>
        <path d="M3252.49,3469.76 C3249.9,3469.76 3247.26,3469.36 3244.66,3468.53 C3231.22,3464.21 3223.83,3449.81 3228.15,3436.37 L3699.51,1971.41 C3703.83,1957.98 3718.24,1950.59 3731.67,1954.91 C3745.11,1959.23 3752.51,1973.62 3748.18,1987.07 L3276.82,3452.02 C3273.34,3462.85 3263.3,3469.76 3252.49,3469.76" id="Fill-48" fill="#151426"></path>
        <polyline id="Fill-49" fill="#00C2E8" points="3298.12 3458.86 3206.86 3429.53 3558.33 2336.14 3649.59 2365.47 3298.12 3458.86"></polyline>
        <path d="M3473.85,2912.17 C3443.43,2910.29 3413.01,2900.51 3382.59,2882.83 L3558.33,2336.14 L3649.59,2365.47 L3473.85,2912.17" id="Fill-50" fill="#03A7C7"></path>
        <path d="M4269.53,3387.38 C4262.62,3387.38 4255.73,3384.59 4250.68,3379.1 L3517.24,2579.25 C3507.7,2568.85 3508.4,2552.68 3518.8,2543.14 C3529.21,2533.6 3545.38,2534.3 3554.92,2544.7 L4288.371,3344.55 C4297.91,3354.95 4297.21,3371.12 4286.8,3380.66 C4281.891,3385.16 4275.7,3387.38 4269.53,3387.38" id="Fill-51" fill="#00C2E8"></path>
        <path d="M3554.92,2544.71 L3891.88,2912.17 C3880.38,2925.85 3867.23,2936.96 3850.85,2943.07 L3517.24,2579.25 C3488.17,2551.76 3526.58,2511.26 3554.92,2544.71" id="Fill-52" fill="#03A7C7"></path>
        <polyline id="Fill-53" fill="#0086A0" points="3582.36 2574.63 3564.36 2630.63 3603.96 2673.83 3610.18 2604.58 3582.36 2574.63"></polyline>
        <path d="M3252.46,3469.76 C3239.27,3469.76 3228.09,3459.63 3227.01,3446.26 C3225.87,3432.19 3236.35,3419.85 3250.42,3418.71 L4267.46,3336.34 C4281.51,3335.19 4293.86,3345.69 4295,3359.76 C4296.141,3373.83 4285.66,3386.16 4271.59,3387.3 L3254.55,3469.67 C3253.85,3469.73 3253.15,3469.76 3252.46,3469.76" id="Fill-54" fill="#0086A0"></path>
        <polyline id="Fill-55" fill="#0086A0" points="3263.73 3490.79 4271.59 3387.3 3252.25 3444.12 3263.73 3490.79"></polyline>
        <path d="M3252.24,3416.08 C3238.46,3416.08 3227.1,3405.11 3226.69004,3391.25 C3226.31,3377.13 3237.42,3365.37 3251.53,3364.97 L4268.8,3336.27 C4283.01,3335.79 4294.68,3346.99 4295.08996,3361.1 C4295.47,3375.21 4284.36,3386.98 4270.25,3387.37 L3252.98,3416.07 C3252.73,3416.08 3252.49,3416.08 3252.24,3416.08" id="Fill-56" fill="#00C2E8"></path>
        <path d="M2375.49,1860.62 C2371.88,1860.62 2368.2,1860 2364.61,1858.7 L2148.51,1789.63 C2131.92,1783.61 2130.12,1758.51 2136.13,1741.93 C2142.14,1725.33 2167.31,1709.92 2183.91,1715.91 L2401.93,1783.06 C2426.25,1792.28 2418.13,1824.41 2412.11,1841 C2407.4,1854 2388.56,1860.62 2375.49,1860.62" id="Fill-57" fill="#151426"></path>
        <path d="M2156.61,1791.69 C2136.59,1788.49 2120.04,1772.72 2116.8,1751.61 C2112.79,1725.44 2130.75,1700.98 2156.92,1696.97 L2329.32,1673.76 C2355.47,1669.75 2379.95,1687.71 2383.96,1713.87 C2387.97,1740.04 2370,1764.51 2343.84,1768.51 L2171.44,1791.72 C2166.39,1792.5 2161.4,1792.45 2156.61,1791.69" id="Fill-58" fill="#151426"></path>
        <path d="M3405.16,2014.59 C3400.74,1975.28 3413.5,1949.43 3498.7,1946.5 C3583.89,1943.57 3652.14,1933.05 3733.21,1923.94 C3814.28,1914.82 3924.29,1859.26 3992.46,1865.75 C4060.63,1872.25 4064.85,2007.68 3932.53,2054.33 C3838.25,2087.56 3802.96,2050.71 3599.69,2050.71 C3455.08,2050.71 3406.61,2027.57 3405.16,2014.59" id="Fill-59" fill="#151426"></path>
        <polyline id="Fill-60" fill="#00C2E8" points="2131.15 2482.02 2041.61 2444.54 2074.39 2366.21 2163.94 2403.69 2131.15 2482.02"></polyline>
        <path d="M2146.41,2360.92 L2117.16,2348.68 C2100.51,2341.71 2081.36,2349.56 2074.39,2366.21 L2163.94,2403.69 C2170.91,2387.04 2163.06,2367.89 2146.41,2360.92" id="Fill-61" fill="#000000"></path>
        <path d="M1877.66,2790.28 L1840.06,2774.54 L1954.32,2501.53 C1963.01,2480.76 1986.9,2470.97 2007.67,2479.66 L1877.66,2790.28" id="Fill-62" fill="#151426"></path>
        <path d="M1855.04,2882.4 C1831.07,2867.39 1820.13,2828.47 1840.06,2774.54 L1885.92,2770.54 C1877.66,2790.28 1881.01,2799.33 1888.56,2802.39 L1855.04,2882.4" id="Fill-63" fill="#151426"></path>
        <polyline id="Fill-64" fill="#151426" points="3641.21 2405.1 3541.24 2372.61 3555.01 2330.22 3654.99 2362.7 3641.21 2405.1"></polyline>
        <polyline id="Fill-65" fill="#03A7C7" points="2430.83 2219.18 2304.69 2174.26 2273.28 2249.27 2305.28 2230.69 2452.46 2249.27 2430.83 2219.18"></polyline>
        <path d="M4284.08,3682.2 C4284.08,3723.47 4250.63,3756.92 4209.36,3756.92 C4168.09,3756.92 4134.64,3723.47 4134.64,3682.2 C4134.64,3640.94 4168.09,3607.48 4209.36,3607.48 C4250.63,3607.48 4284.08,3640.94 4284.08,3682.2" id="Fill-66" fill="#151426"></path>
        <path d="M4243.021,3524.8 C4243.021,3548.82 4223.55,3568.29 4199.53,3568.29 C4175.5,3568.29 4156.03,3548.82 4156.03,3524.8 C4156.03,3500.78 4175.5,3481.3 4199.53,3481.3 C4223.55,3481.3 4243.021,3500.78 4243.021,3524.8" id="Fill-67" fill="#151426"></path>
        <polyline id="Fill-68" fill="#151426" points="4243.021 3524.8 4282.971 3669.43 4209.36 3660.31 4176.9 3487.7 4243.021 3524.8"></polyline>
        <path d="M3501.4,2829.67 C3500.58,2829.67 3499.77,2829.35 3499.14,2828.73 C3497.9,2827.48 3497.9,2825.46 3499.14,2824.21 C3540.52,2782.83 3557.41,2745.94 3550.77,2711.41 C3542.16,2666.61 3493.78,2625.84 3402.87,2586.79 C3401.25,2586.09 3400.5,2584.21 3401.2,2582.59 C3401.89,2580.97 3403.77,2580.21 3405.39,2580.92 C3498.4,2620.87 3548.01,2663.16 3557.05,2710.21 C3564.11,2746.97 3546.65,2785.74 3503.66,2828.73 C3503.04,2829.35 3502.22,2829.67 3501.4,2829.67" id="Fill-69" fill="#151426"></path>
        <path d="M2389.51,2223.31 C2389.1,2223.31 2388.68,2223.23 2388.28,2223.06 C2313.09,2191.54 2249.93,2183.43 2194.21,2176.28 C2112.56,2165.81 2048.08,2157.54 1996.73,2076.71 C1971.99,2037.76 1968.45,1969.02 1987.95,1905.67 C2011.57,1828.91 2063.74,1769.72 2134.86,1739 C2136.49,1738.3 2138.37,1739.04 2139.06,1740.66 C2139.76,1742.28 2139.02,1744.16 2137.4,1744.86 C2043.79,1785.3 2007.41,1864.15 1994.06,1907.55 C1975.08,1969.22 1978.33,2035.82 2002.12,2073.29 C2051.86,2151.58 2111.91,2159.28 2195.02,2169.94 C2251.15,2177.15 2314.76,2185.31 2390.75,2217.17 C2392.37,2217.85 2393.14,2219.72 2392.46,2221.35 C2391.94,2222.57 2390.76,2223.31 2389.51,2223.31" id="Fill-70" fill="#151426"></path>
        <polyline id="Fill-71" fill="#B9BDC1" points="3405.47 2584.43 2392.82 2219.16 2394.98 2213.15 3407.64 2578.42 3405.47 2584.43"></polyline>
        <path d="M3525.05,2833.67 C3525.05,2844.79 3516.03,2853.81 3504.91,2853.81 C3493.79,2853.81 3484.77,2844.79 3484.77,2833.67 C3484.77,2822.55 3493.79,2813.53 3504.91,2813.53 C3516.03,2813.53 3525.05,2822.55 3525.05,2833.67" id="Fill-72" fill="#03A7C7"></path>
        <path d="M2389.51,2214.96 C2389.14,2214.96 2388.76,2214.89 2388.39,2214.76 C2338.44,2196.11 2286.69,2185.92 2236.64,2176.08 C2138.68,2156.81 2054.09,2140.16 2014.71,2067.58 C1967.42,1980.42 2004.21,1827.7 2134.33,1739.28 C2135.79,1738.29 2137.78,1738.67 2138.77,1740.13 C2139.77,1741.59 2139.39,1743.58 2137.93,1744.57 C2010.66,1831.05 1974.37,1979.83 2020.33,2064.53 C2058.27,2134.47 2141.5,2150.85 2237.87,2169.81 C2288.17,2179.7 2340.19,2189.94 2390.63,2208.77 C2392.28,2209.39 2393.12,2211.23 2392.51,2212.88 C2392.03,2214.17 2390.81,2214.96 2389.51,2214.96" id="Fill-73" fill="#151426"></path>
        <path d="M2414.04,2208.55 C2414.04,2219.68 2405.02,2228.69 2393.9,2228.69 C2382.78,2228.69 2373.76,2219.68 2373.76,2208.55 C2373.76,2197.43 2382.78,2188.42 2393.9,2188.42 C2405.02,2188.42 2414.04,2197.43 2414.04,2208.55" id="Fill-74" fill="#00C2E8"></path>
        <path d="M3760.67,2857 C3759.96,2857 3759.25,2856.77 3758.66,2856.29 C3660.55,2776.42 3636.13,2715.01 3618.3,2670.17 C3606.43,2640.31 3597.85,2618.75 3572.13,2604.42 C3545.51,2589.61 3514.49,2589.02 3484.49,2588.45 C3455.43,2587.9 3427.98,2587.38 3406.41,2574.13 C3404.91,2573.2 3404.44,2571.24 3405.37,2569.73 C3406.29,2568.23 3408.25,2567.75 3409.76,2568.68 C3429.84,2581.03 3456.44,2581.53 3484.61,2582.06 C3515.39,2582.65 3547.23,2583.25 3575.23,2598.84 C3602.95,2614.27 3612.34,2637.9 3624.24,2667.8 C3641.81,2711.99 3665.87,2772.52 3762.69,2851.33 C3764.06,2852.45 3764.27,2854.46 3763.15,2855.83 C3762.52,2856.6 3761.6,2857 3760.67,2857" id="Fill-75" fill="#151426"></path>
        <path d="M3428.22,2571.41 C3428.22,2582.53 3419.21,2591.54 3408.09,2591.54 C3396.97,2591.54 3387.95,2582.53 3387.95,2571.41 C3387.95,2560.28 3396.97,2551.27 3408.09,2551.27 C3419.21,2551.27 3428.22,2560.28 3428.22,2571.41" id="Fill-76" fill="#03A7C7"></path>
        <polyline id="Fill-77" fill="#B9BDC1" points="4047.97 3181.97 3763.5 2869.17 3768.23 2864.88 4052.7 3177.67 4047.97 3181.97"></polyline>
        <path d="M3786,2853.81 C3786,2864.93 3776.99,2873.95 3765.87,2873.95 C3754.75,2873.95 3745.73,2864.93 3745.73,2853.81 C3745.73,2842.69 3754.75,2833.67 3765.87,2833.67 C3776.99,2833.67 3786,2842.69 3786,2853.81" id="Fill-78" fill="#03A7C7"></path>
        <path d="M4408.42,3548.32 C4369.86,3548.32 4319.79,3534.26 4257.44,3490.31 C4256,3489.29 4255.65,3487.3 4256.67,3485.86 C4257.681,3484.41 4259.68,3484.07 4261.12,3485.09 C4379.49,3568.51 4451.61,3541.88 4484.07,3518.59 C4531.65,3484.44 4554.52,3414.8 4537.28,3356.6 C4510.98,3267.87 4421.89,3264.91 4318.75,3261.49 C4224.92,3258.37 4118.58,3254.84 4051.59,3178.25 C4050.44,3176.93 4050.57,3174.91 4051.9,3173.75 C4053.22,3172.59 4055.24,3172.71 4056.41,3174.05 C4121.56,3248.55 4221.91,3251.88 4318.96,3255.1 C4420.18,3258.46 4515.79,3261.63 4543.4,3354.79 C4561.39,3415.47 4537.48,3488.12 4487.79,3523.78 C4471.31,3535.61 4445.06,3548.31 4408.42,3548.32" id="Fill-79" fill="#151426"></path>
        <path d="M4080.41,3171.36 C4080.41,3182.48 4071.39,3191.5 4060.27,3191.5 C4049.15,3191.5 4040.14,3182.48 4040.14,3171.36 C4040.14,3160.24 4049.15,3151.22 4060.27,3151.22 C4071.39,3151.22 4080.41,3160.24 4080.41,3171.36" id="Fill-80" fill="#00C2E8"></path>
        <path d="M3358.13,3399.66 C3354.13,3389.95 3355.42,3379.39 3360.58,3371.07 C3358.91,3371.34 3357.24,3371.57 3355.52,3371.57 C3347.1,3371.57 3339.19,3368.29 3333.24,3362.33 C3325.92,3355.01 3323.06,3344.98 3324.46,3335.45 C3323.14,3336.23 3321.82,3337.02 3320.37,3337.62 C3316.5,3339.22 3312.43,3340.01 3308.36,3340.01 C3304.25,3340.01 3300.16,3339.2 3296.25,3337.58 C3288.48,3334.35 3282.44,3328.28 3279.22,3320.49 C3278.57,3318.91 3278.14,3317.28 3277.76,3315.64 C3272.03,3323.57 3262.76,3328.79 3252.25,3328.79 C3241.9,3328.79 3232.78,3323.71 3227.03,3315.98 C3224.66,3325.31 3218.17,3333.49 3208.6,3337.44 C3204.68,3339.05 3200.62,3339.81 3196.63,3339.81 C3190.72,3339.81 3184.97,3338.09 3180.01,3335.03 C3180.27,3336.68 3180.5,3338.34 3180.5,3340.05 C3180.5,3348.47 3177.22,3356.38 3171.26,3362.33 C3165.31,3368.29 3157.4,3371.57 3148.98,3371.57 C3147.42,3371.57 3145.9,3371.34 3144.38,3371.12 C3145.17,3372.43 3145.96,3373.75 3146.55,3375.2 C3149.76,3382.98 3149.75,3391.55 3146.51,3399.32 C3143.28,3407.09 3137.21,3413.14 3129.43,3416.35 C3127.84,3417 3126.21,3417.43 3124.57,3417.82 C3132.5,3423.55 3137.72,3432.81 3137.72,3443.32 C3137.72,3453.67 3132.64,3462.8 3124.91,3468.54 C3134.25,3470.91 3142.42,3477.41 3146.37,3486.98 C3150.38,3496.69 3149.08,3507.25 3143.93,3515.57 C3153.59,3514.01 3163.84,3516.87 3171.26,3524.3 C3177.22,3530.26 3180.5,3538.17 3180.5,3546.59 C3180.5,3548.15 3180.27,3549.67 3180.05,3551.19 C3188.32,3546.27 3198.69,3545.09 3208.25,3549.06 C3216.02,3552.29 3222.07,3558.36 3225.28,3566.14 C3225.93,3567.73 3226.36,3569.37 3226.75,3571.01 C3232.47,3563.07 3241.74,3557.85 3252.25,3557.85 C3262.6,3557.85 3271.73,3562.93 3277.48,3570.66 C3279.84,3561.33 3286.34,3553.15 3295.9,3549.2 C3305.62,3545.19 3316.18,3546.49 3324.5,3551.65 C3322.95,3541.98 3325.8,3531.74 3333.24,3524.3 C3340.56,3516.98 3350.6,3514.12 3360.13,3515.53 C3355.21,3507.25 3354.02,3496.87 3357.99,3487.32 C3361.22,3479.55 3367.29,3473.51 3375.07,3470.3 C3376.66,3469.64 3378.3,3469.21 3379.94,3468.83 C3372,3463.1 3366.78,3453.83 3366.78,3443.32 C3366.78,3432.98 3371.85,3423.87 3379.56,3418.12 C3370.23,3415.75 3362.08,3409.22 3358.13,3399.66" id="Fill-81" fill="#151426"></path>
        <path d="M3370.33,3471.42 C3373.96,3474.03 3376.85,3477.56 3378.6,3481.8 C3381.07,3487.79 3381.06,3494.38 3378.57,3500.37 C3374.69,3509.68 3365.64,3515.31 3356.14,3515.31 C3354.97,3515.31 3353.8,3515.13 3352.63,3514.96 C3358.18,3524.28 3357.03,3536.5 3349.02,3544.51 C3344.3,3549.24 3338.08,3551.6 3331.87,3551.6 C3327.43,3551.6 3323.02,3550.34 3319.12,3547.93 C3320.87,3558.79 3315.07,3569.85 3304.47,3574.22 C3301.46,3575.46 3298.33,3576.05 3295.26,3576.05 C3287.66,3576.05 3280.41,3572.41 3275.81,3566.23 C3273.14,3576.72 3263.69,3584.54 3252.37,3584.54 C3240.9,3584.54 3231.32,3576.52 3228.8,3565.8 C3224.21,3572.16 3216.86,3575.91 3209.15,3575.91 C3206.05,3575.91 3202.9,3575.31 3199.86,3574.05 C3193.88,3571.56 3189.22,3566.89 3186.75,3560.9 C3185.06,3556.79 3184.62,3552.4 3185.26,3548.12 C3181.45,3550.39 3177.18,3551.6 3172.87,3551.6 C3166.66,3551.6 3160.45,3549.24 3155.72,3544.51 C3147.61,3536.4 3146.51,3523.95 3152.3,3514.59 C3151.02,3514.8 3149.74,3514.97 3148.47,3514.97 C3138.92,3514.97 3129.86,3509.31 3126,3499.95 C3121.69,3489.49 3125.32,3477.76 3134.02,3471.29 C3123.51,3468.63 3115.68,3459.17 3115.68,3447.85 C3115.68,3436.38 3123.7,3426.8 3134.41,3424.29 C3125.49,3417.85 3121.77,3405.93 3126.17,3395.34 C3128.66,3389.36 3133.33,3384.7 3139.32,3382.23 C3143.43,3380.54 3147.82,3380.09 3152.11,3380.73 C3146.56,3371.42 3147.71,3359.2 3155.72,3351.2 C3163.82,3343.09 3176.27,3341.98 3185.62,3347.78 C3183.87,3336.92 3189.67,3325.85 3200.27,3321.48 C3210.74,3317.18 3222.46,3320.81 3228.93,3329.5 C3231.59,3318.99 3241.05,3311.16 3252.37,3311.16 C3263.84,3311.16 3273.42,3319.18 3275.94,3329.89 C3282.37,3320.97 3294.29,3317.25 3304.88,3321.65 C3315.33,3326 3321.06,3336.87 3319.48,3347.59 C3328.79,3342.04 3341.02,3343.19 3349.02,3351.2 C3357.13,3359.31 3358.24,3371.75 3352.44,3381.1 C3363.31,3379.35 3374.37,3385.15 3378.74,3395.75 C3383.06,3406.21 3379.42,3417.94 3370.73,3424.41 C3381.23,3427.07 3389.06,3436.53 3389.06,3447.85 C3389.06,3459.32 3381.04,3468.9 3370.33,3471.42 Z M3252.25,3223.3 C3130.74,3223.3 3032.23,3321.81 3032.23,3443.32 C3032.23,3564.84 3130.74,3663.34 3252.25,3663.34 C3373.77,3663.34 3472.28,3564.84 3472.28,3443.32 C3472.28,3321.81 3373.77,3223.3 3252.25,3223.3 L3252.25,3223.3 Z" id="Fill-82" fill="#151426"></path>
        <path d="M3170.44,3519.67 L3113.67,3614.18 L3166.51,3645.92 L3222.52,3552.67 C3202.06,3546.86 3184.09,3535.23 3170.44,3519.67" id="Fill-83" fill="#313144"></path>
        <path d="M3181.63,3364.94 L3081.4,3304.74 L3049.66,3357.58 L3147.91,3416.6 C3154,3396.23 3165.87,3378.4 3181.63,3364.94" id="Fill-84" fill="#313144"></path>
        <path d="M3330.89,3372.27 L3390.84,3272.47 L3338,3240.72 L3277.31,3341.76 C3298.09,3346.63 3316.57,3357.4 3330.89,3372.27" id="Fill-85" fill="#313144"></path>
        <path d="M3454.85,3529.06 L3358.82,3471.38 C3354.23,3492.25 3343.7,3510.89 3329.03,3525.39 L3423.11,3581.9 L3454.85,3529.06" id="Fill-86" fill="#313144"></path>
        <path d="M3358.82,3471.38 L3339.99,3460.07 C3314.89,3444.99 3306.77,3412.43 3321.84,3387.33 L3330.89,3372.27 C3316.57,3357.4 3298.09,3346.63 3277.31,3341.76 L3269,3355.59 C3253.93,3380.68 3221.36,3388.81 3196.26,3373.73 L3181.63,3364.94 C3165.87,3378.4 3154,3396.23 3147.91,3416.6 L3164.52,3426.57 C3189.62,3441.65 3197.74,3474.22 3182.67,3499.31 L3170.44,3519.67 C3184.09,3535.23 3202.06,3546.86 3222.52,3552.67 L3235.51,3531.05 C3250.58,3505.95 3283.15,3497.83 3308.25,3512.91 L3329.03,3525.39 C3343.7,3510.89 3354.23,3492.25 3358.82,3471.38" id="Fill-87" fill="#242435"></path>
        <path d="M3252.25,3223.3 C3130.74,3223.3 3032.23,3321.81 3032.23,3443.32 C3032.23,3564.84 3130.74,3663.34 3252.25,3663.34 C3373.77,3663.34 3472.28,3564.84 3472.28,3443.32 C3472.28,3321.81 3373.77,3223.3 3252.25,3223.3 Z M3252.25,3242.47 C3363,3242.47 3453.11,3332.57 3453.11,3443.32 C3453.11,3554.07 3363,3644.17 3252.25,3644.17 C3141.5,3644.17 3051.4,3554.07 3051.4,3443.32 C3051.4,3332.57 3141.5,3242.47 3252.25,3242.47 L3252.25,3242.47 Z" id="Fill-88" fill="#313144"></path>
        <path d="M3268.07,3472.65 L2846.63,3549.83 L2835.21,3487.46 L3256.65,3410.29 C3273.87,3407.13 3290.39,3418.54 3293.54,3435.76 C3296.7,3452.98 3285.29,3469.5 3268.07,3472.65" id="Fill-89" fill="#A5AAAD"></path>
        <path d="M3274.72,3443.32 C3274.72,3455.73 3264.66,3465.79 3252.25,3465.79 C3239.85,3465.79 3229.79,3455.73 3229.79,3443.32 C3229.79,3430.91 3239.85,3420.85 3252.25,3420.85 C3264.66,3420.85 3274.72,3430.91 3274.72,3443.32" id="Fill-90" fill="#151426"></path>
        <path d="M2855.16,3559.39 L2638.25,3559.39 C2616.3,3559.39 2598.51,3541.6 2598.51,3519.65 C2598.51,3497.7 2616.3,3479.91 2638.25,3479.91 L2855.16,3479.91 C2877.11,3479.91 2894.9,3497.7 2894.9,3519.65 C2894.9,3541.6 2877.11,3559.39 2855.16,3559.39" id="Fill-91" fill="#B9BDC1"></path>
        <path d="M2778.72,3519.65 C2778.72,3537.11 2764.57,3551.26 2747.11,3551.26 C2729.66,3551.26 2715.5,3537.11 2715.5,3519.65 C2715.5,3502.19 2729.66,3488.04 2747.11,3488.04 C2764.57,3488.04 2778.72,3502.19 2778.72,3519.65" id="Fill-92" fill="#151426"></path>
        <path d="M2690.22,3519.65 C2690.22,3528.87 2682.75,3536.34 2673.53,3536.34 C2664.31,3536.34 2656.84,3528.87 2656.84,3519.65 C2656.84,3510.43 2664.31,3502.96 2673.53,3502.96 C2682.75,3502.96 2690.22,3510.43 2690.22,3519.65" id="Fill-93" fill="#151426"></path>
        <path d="M2837.38,3519.65 C2837.38,3528.87 2829.91,3536.34 2820.69,3536.34 C2811.48,3536.34 2804.01,3528.87 2804.01,3519.65 C2804.01,3510.43 2811.48,3502.96 2820.69,3502.96 C2829.91,3502.96 2837.38,3510.43 2837.38,3519.65" id="Fill-94" fill="#151426"></path>
        <path d="M2981.84,3080.37 L2979.42,3271.67 L3000.82,3316.88 C2996.7,3420.3 2869.29,3324.49 2790.81,3287.08 C2821.75,3252.06 2803.78,3115.76 2793.05,3043.11 L2981.84,3080.37" id="Fill-95" fill="#FFAE92"></path>
        <path d="M3000.82,3316.88 C3042.43,3403.29 3022.25,3463.31 3022.25,3463.31 C2798.73,3485.75 2413.58,3457.19 2417.82,3407.22 C2430.65,3348.37 2476.27,3364.99 2568,3348.78 C2675.38,3329.81 2738.39,3223.6 2809.05,3229.67 C2873.02,3275.15 2849.97,3368.4 3000.82,3316.88" id="Fill-96" fill="#00C2E8"></path>
        <path d="M2558.53,3365.59 C2634.31,3377.51 2837.69,3282.18 2844.37,3277.26 C2846.56,3275.65 2847.13,3272.48 2845.65,3270.19 C2844.16,3267.9 2841.19,3267.36 2839.01,3268.96 C2837.36,3270.18 2611.66,3385.07 2538.47,3353.18 C2527.22,3348.28 2524.17,3362.65 2558.53,3365.59" id="Fill-97" fill="#FFFFFF"></path>
        <path d="M3046.17,3497.37 C2991.14,3518.26 2911.21,3492.95 2888.85,3494.85 C2824.66,3500.3 2674.35,3494.96 2625.3,3490.64 C2515.88,3481.01 2411.39,3453.35 2412.49,3440.4 C2412.84,3424.17 2414.24,3409.07 2419.87,3398.52 C2623.18,3481.66 2811.43,3420.48 2874.42,3414.54 C2914.58,3410.76 2990.85,3437.71 3029.73,3441.01 C3034.92,3448.14 3050.92,3473.3 3046.17,3497.37" id="Fill-98" fill="#EAEAEA"></path>
        <path d="M2980.12,3216.23 C2958.74,3230.68 2829.86,3227.88 2804.26,3214.35 C2776.2,3199.52 2785.62,3014.15 2785.62,3014.15 L3007.97,3021.98 C3007.97,3021.98 2989.63,3209.81 2980.12,3216.23" id="Fill-99" fill="#998C8C"></path>
        <path d="M2721.85,2028.62 C2739.83,1892.51 3373.55,1665.03 3373.55,1665.03 L4016.61,1560.34 C4016.61,1560.34 4087.74,1802.22 3969.7,1911.62 C3834.22,2037.17 3426.03,2105.96 3218.38,2205.96 C3191.78,2218.77 3153.78,2206.66 3153.78,2206.66 C3152.59,2224.04 3176.48,2242.03 3175.41,2260.52 C3174.1,2283.26 3147.85,2306.75 3146.65,2330.77 C3130.7,2650.79 3058.21,3088.57 2993.09,3088.57 L2787.9,3098.71 C2733.56,3098.71 2768.71,2504.12 2721.85,2028.62" id="Fill-100" fill="#998C8C"></path>
        <path d="M3146.65,2330.77 C3147.85,2306.75 3174.1,2283.26 3175.41,2260.52 C3176.48,2242.03 3152.59,2224.04 3153.78,2206.66 C3153.78,2206.66 3191.78,2218.77 3218.38,2205.96 C3151.86,2181.23 3081.41,2170.71 2998.31,2205.96 C3090.45,2223.82 3134.02,2268.69 3146.65,2330.77" id="Fill-101" fill="#7F7474"></path>
        <path d="M4871.43,1123.09 C4848.91,1170.71 4085.89,1448.14 4005.54,1437 C3965.36,1431.44 3870.16,1146.55 3797.92,935.334 C3725.68,724.117 3628.39,488.512 3642.59,458.491 C3671,398.449 4445.79,114.917 4508.49,144.579 C4539.45,159.224 4620.84,362.868 4693.88,570.592 C4768.79,783.602 4882.84,1098.98 4871.43,1123.09" id="Fill-102" fill="#00C2E8"></path>
        <path d="M4857.24,1045.31 C4599.4,1148.95 4265.37,1271.69 3966.18,1368.22 L3943.46,1304.72 C4248.36,1204.08 4582.81,1081.63 4837.87,980.61 C4845.2,1002.44 4852.78,1023.61 4857.24,1045.31" id="Fill-103" fill="#DBDBDB"></path>
        <path d="M3943.46,1309.39 C3941.5,1309.39 3939.68,1308.14 3939.03,1306.18 C3938.22,1303.74 3939.55,1301.1 3942,1300.29 C4227.21,1206.14 4560.75,1085.27 4834.221,976.966 C4836.61,976.008 4839.32,977.188 4840.27,979.586 C4841.22,981.981 4840.05,984.691 4837.65,985.64 C4564.03,1094.01 4230.3,1214.95 3944.93,1309.15 C3944.44,1309.31 3943.95,1309.39 3943.46,1309.39" id="Fill-104" fill="#F4F4F4"></path>
        <path d="M3966.18,1372.89 C3964.21,1372.89 3962.38,1371.63 3961.74,1369.65 C3960.95,1367.2 3962.29,1364.57 3964.75,1363.78 C4242.23,1274.25 4574.4,1153.87 4853.32,1041.76 C4855.71,1040.79 4858.431,1041.96 4859.38,1044.35 C4860.35,1046.74 4859.19,1049.46 4856.8,1050.42 C4577.69,1162.61 4245.29,1283.07 3967.61,1372.66 C3967.14,1372.81 3966.65,1372.89 3966.18,1372.89" id="Fill-105" fill="#F4F4F4"></path>
        <path d="M4643.02,431.598 C4381.12,536.69 4032.75,664.561 3728.97,762.735 L3706.25,699.234 C4015.83,596.912 4360.7,470.74 4619.77,368.288 C4627.09,390.116 4638.61,409.881 4643.02,431.598" id="Fill-106" fill="#DBDBDB"></path>
        <path d="M3706.25,703.936 C3704.28,703.936 3702.44,702.686 3701.79,700.709 C3700.97,698.244 3702.31,695.584 3704.78,694.769 C3997,598.186 4337.77,474.752 4616.35,364.582 C4618.75,363.624 4621.5,364.807 4622.45,367.225 C4623.41,369.64 4622.22,372.371 4619.81,373.326 C4341.08,483.557 4000.11,607.061 3707.73,703.699 C3707.24,703.86 3706.74,703.936 3706.25,703.936" id="Fill-107" fill="#F4F4F4"></path>
        <path d="M3728.97,767.436 C3726.98,767.436 3725.13,766.172 3724.49,764.18 C3723.7,761.709 3725.05,759.06 3727.52,758.26 C4008.2,667.556 4357.46,541.023 4639.021,428.035 C4641.44,427.06 4644.17,428.24 4645.14,430.646 C4646.11,433.059 4644.94,435.795 4642.53,436.762 C4360.78,549.823 4011.28,676.443 3730.41,767.208 C3729.93,767.363 3729.45,767.436 3728.97,767.436" id="Fill-108" fill="#F4F4F4"></path>
        <path d="M3997.63,1438.35 C4122.061,1479.26 4804.94,1263.65 4871.43,1123.09 C4652.98,1240.92 4241.24,1390.9 3997.63,1438.35" id="Fill-109" fill="#151426"></path>
        <path d="M4853.26,1150.42 L4841.42,1154.65 C4764.9,876.097 4623.24,466.764 4502.27,218.294 L4520.2,211.881 C4659.37,483.046 4794.03,895.168 4853.26,1150.42" id="Fill-110" fill="#151426"></path>
        <path d="M3655.52,532.472 C3655.52,532.472 3615.56,459.381 3659.31,414.265 C3703.07,369.149 4463.51,88.563 4504.27,107.844 C4545.03,127.124 4589.11,233.253 4589.11,233.253 C4589.11,233.253 4566.09,268.367 4521.63,254.94 C4477.18,241.512 4493.96,205.668 4453.76,179.507 C4413.55,153.346 3699.92,422.411 3676.67,461.653 C3664.14,478.529 3657.67,502.399 3655.52,532.472" id="Fill-111" fill="#0086A0"></path>
        <path d="M3676.64,469.308 C3675.25,469.308 3673.85,468.937 3672.6,468.154 C3668.99,465.897 3667.75,461.317 3669.92,457.655 C3693.04,418.643 4230.26,216.269 4396.45,177.447 C4440.75,167.094 4452.24,169.158 4458.03,172.938 C4478.54,186.281 4485.59,201.854 4491.8,215.594 C4498.54,230.486 4503.41,241.244 4523.9,247.433 C4561.971,258.919 4581.75,230.156 4582.57,228.926 C4584.97,225.34 4589.83,224.349 4593.43,226.733 C4597.03,229.116 4598.03,233.944 4595.67,237.553 C4586.59,251.393 4558.971,274.404 4519.371,262.445 C4492.06,254.197 4484.66,237.86 4477.51,222.06 C4471.67,209.134 4466.15,196.924 4449.48,186.08 C4433.96,178.884 4294.91,217.049 4059.52,304.166 C3839.23,385.7 3692.76,451.487 3683.39,465.678 C3681.86,467.999 3679.27,469.308 3676.64,469.308" id="Fill-112" fill="#151426"></path>
        <path d="M3584.91,487.696 C3584.91,487.696 3631.29,436.824 3659.31,414.265 C3709.86,581.113 3797.71,763.374 3868.6,947.389 C3936.67,1124.07 3987.66,1303.08 4043.66,1438.01 C4013.29,1448.88 3981.62,1439.62 3969.2,1409.85 C3882.81,1202.89 3783.24,884.21 3661.92,648.616 C3608.44,544.747 3508.26,517.596 3508.26,517.596 L3584.91,487.696" id="Fill-113" fill="#151426"></path>
        <path d="M3700.56,662.96 C3992.48,576.247 4326.57,452.466 4605.91,334.934 L4579.78,272.021 C4298.44,385.591 3965.23,508.303 3677.64,598.897 L3700.56,662.96" id="Fill-126" fill="#151426"></path>
        <path d="M3898.28,546.727 C3909.09,545.843 3920.73,279.639 3951.94,247.979 C3992.35,206.976 4006.47,266.308 4006.47,266.308 L3979.86,275.826 L3969.04,521.417 L3898.28,546.727" id="Fill-127" fill="#151426"></path>
        <path d="M4308.54,399.972 C4308.54,399.972 4200.15,198.209 4094.24,207.443 C4024.8,213.497 4032.73,256.914 4032.73,256.914 L4065.33,245.254 C4094.4,237.213 4211.181,315.112 4249.14,421.221 L4308.54,399.972" id="Fill-128" fill="#151426"></path>
        <path d="M3291.87,379.523 L3303.57,405.719 L3364.58,460.689 L3459.68,488.917 L3237.17,719.549 C3237.17,719.549 3133.96,642.403 3120.92,624.224 C3105.07,602.133 3120.94,579.639 3053.68,579.639 L3158.21,328.826 L3291.87,379.523" id="Fill-129" fill="#FFAE92"></path>
        <path d="M3053.68,579.639 C2945.02,593.106 2929.79,575.709 2929.79,575.709 L3159.53,425.636 C3159.93,500.779 3149.69,567.74 3053.68,579.639" id="Fill-130" fill="#B5594D"></path>
        <path d="M2919.86,111.591 C2907.31,124.591 2904.41,209.77 2898.4,253.645 C2894.38,282.932 2911.71,279.009 2913.96,295.339 C2916.84,316.237 2912.86,340.609 2913.83,358.803 C2915.53,390.604 2919.89,422.17 2918.6,436.354 C2918.34,439.166 2925.24,444.598 2924.95,447.218 C2924.35,452.655 2980.7,440.103 2984.85,445.852 C3000.6,467.654 2924.32,500.5 2923.13,508.2 C2921.42,519.192 2915.86,526.822 2915.88,543.6 C2915.89,553.652 2915.88,543.6 2925.51,551.313 C2937.12,560.599 2946.66,562.89 2956.61,561.452 C3114.55,538.605 3147.37,464.719 3194.31,405.537 L3242.85,125.017 C3235.62,47.232 3035.35,97.205 2919.86,111.591" id="Fill-131" fill="#FFAE92"></path>
        <path d="M3172.24,411.729 C3167.92,465.829 3139.3,520.824 3065.93,554.826 C3038.2,567.677 3002.51,577.388 2956.59,582.676 C2946.6,583.825 2937.1,581.824 2925.49,572.537 C2915.86,564.825 2908.64,551.297 2911.9,541.188 C2917.05,525.219 2921.42,519.192 2923.13,508.2 C2924.25,500.968 3005.98,477.961 2984.85,445.852 C2980.6,439.396 2916.29,440.491 2916.94,434.606 C2917.23,431.987 2909.16,414.868 2909.42,412.056 C2945.15,408.615 2962.83,399.071 2998.6,401.956 C3017.82,403.505 3039.82,436.757 3039.82,436.757 C3039.82,436.757 3093.53,439.175 3106.33,339.126 L3174.67,222.793 L3199.15,167.95 L3172.24,411.729" id="Fill-132" fill="#C68973"></path>
        <path d="M2917.54,486.142 C2915.82,497.279 2923.13,508.201 2923.13,508.201 C2932.87,503.552 2952.08,517.672012 2952.08,517.672012 C2952.08,517.672012 2969.45,517.778 2992.1,497.794 C3004.25,487.082 3020.96,444.148 2992.91,423.333 C2983.56,416.393 2929.05,438.106 2916.94,434.606 C2916.94,434.606 2914.67,439.293 2915.34,445.583 C2915.81,449.948 2920.94,455.092 2925.99,459.97 L2928.16,478.51 L2917.54,486.142" id="Fill-133" fill="#FFAE92"></path>
        <path d="M2925.99,459.97 C2920.94,455.092 2915.81,449.948 2915.34,445.583 C2926.93,450.483 2973.72,446.765 2982.31,448.952 C2961.71,458.683 2936.86,461.343 2926,459.97 L2925.99,459.97" id="Fill-134" fill="#E87A6B"></path>
        <path d="M2964.62,245.902 C2964.05,258.723 2958,281.923 2939.17,305.13 C2908.14,343.38 2939.04,395.659 2927.88,405.175 C2919.81,406.776 2905.25,404.157 2894.85,401.251 C2873.98,395.417 2876.73,373.604 2876.73,373.604 C2898.53,351.013 2911.88,326.31 2910.24,239.142 C2913.84,234.232 2935.92,231.075 2964.62,245.902" id="Fill-135" fill="#FFAE92"></path>
        <path d="M2909.42,412.056 C2901.27,408.845 2895.29,406.818 2888.35,401.964 C2866.8,386.889 2876.73,373.604 2876.73,373.604 C2884.75,388.34 2926.69,406.832 2950.83,405.734 C2938.99,410.084 2917.14,411.466 2909.42,412.056" id="Fill-136" fill="#E87A6B"></path>
        <path d="M3097.95,160.99 C3099.29,189.211 3091.45,245.382 3086.33,258.731 L3111.23,273.331 L3106.33,339.126 C3106.33,339.126 3169.64,363.299 3184.59,376.028 C3242.85,425.636 3312.79,414.03 3312.79,414.03 C3309.78,407.876 3313.41,396.633 3316.2,390.208 C3355.12,300.886 3355.96,188.198 3332.2,132.458 L3097.95,160.99" id="Fill-137" fill="#0086A0"></path>
        <path d="M3332.2,132.458 C3271.82,-9.171 3066.32,28.269 3008.24,44.297 C2934.54,64.637 2915.76,113.646 2915.07,119.953 C2915.07,119.953 2946.21,125.664 3023.91,112.663 C3083.24,102.737 3096.45,129.658 3097.95,160.99 C3185.68,169.516 3272.32,173.427 3332.2,132.458" id="Fill-138" fill="#49071D"></path>
        <path d="M2918.58,265.869 C2919.04,291.595 2920.87,324.254 2950.98,335.027 L2983.17,313.907 L3004.88,269.643 C3004.88,269.643 2955.92,267.99 2918.58,265.869" id="Fill-139" fill="#E87A6B"></path>
        <path d="M2962.56,315.962 C2963.41,325.098 2960.93,335.02 2954.02,335.385 C2947.11,335.749 2945.27,330.087 2944.43,320.95 C2943.59,311.816 2944.21,303.315 2949.21,301.937 C2954.22,300.56 2961.72,306.827 2962.56,315.962" id="Fill-140" fill="#49071D"></path>
        <path d="M2933.79,307.463 C2933.38,311.141 2942.75,308.204 2947.87,307.461 C2958.63,306.642 2960.46,307.093 2966.81,308.456 C2983.25,312.639 2984.49,319.102 2987.86,316.971 C2991.77,314.507 2978.61,301.522 2955.85,297.519 C2942.71,295.208 2934.15,304.236 2933.79,307.463" id="Fill-141" fill="#49071D"></path>
        <path d="M3002.95,266.275 C2972.89,263.339 2943.22,263.748 2913.98,263.258 C2910.41,263.196 2907.94,266.343 2908.13,269.104 L2908.74,277.782 C2908.98,281.104 2912.94,282.932 2917.19,282.549 C2942.28,280.288 2970.4,277.886 3000.2,276.971 C3004.46,276.839 3008.1,274.371 3007.86,271.058 C3007.7,268.798 3005.77,266.552 3002.95,266.275" id="Fill-142" fill="#49071D"></path>
        <polyline id="Fill-143" fill="#E87A6B" points="3047.36 425.636 3051.36 422.178 3034.26 402.424 3030.26 405.881 3047.36 425.636"></polyline>
        <path d="M2926,459.97 C2932.74,461.126 2961.71,457.884 2982.31,448.952 C2975.66,459.985 2957.85,473.457 2928.16,478.509 L2926,459.97" id="Fill-144" fill="#FFFFFF"></path>
        <path d="M3339.2,335.401 C3368.42,185.065 3355.69,82.509 3212.71,22.077 C3063.39,-41.036 2920.21,39.936 2893.62,161.308 C3024.53,209.279 3227.38,320.672 3339.2,335.401" id="Fill-145" fill="#00C2E8"></path>
        <path d="M2897.79,148.81 L2733.85,166.525 C2726.37,197.634 2761.06,249.36 2827.02,248.797 C2898.56,248.185 3054.28,229.152 3054.28,229.152 C2999.82,205.381 2944.12,148.81 2897.79,148.81" id="Fill-146" fill="#03A7C7"></path>
        <path d="M3183.92,268.81 C3205.63,268.01 3228.67,281.554 3227.38,320.672 C3228.19,342.685 3210.63,363.749 3194.9,377.861 C3177.92,391.673 3185.45,410.175 3169.76,415.807 C3139.75,426.579 3139.69,366.499 3138.85,343.876 C3138.85,343.876 3133.43,269.675 3183.92,268.81" id="Fill-147" fill="#FFAE92"></path>
        <path d="M3173.28,390.143 C3171.88,390.399 3170.41,389.845 3169.55,388.612 L3168.53,387.148 C3164.4,381.246 3158.75,373.175 3160.52,366.242 C3161.05,364.152 3162.52,361.236 3166.53,359.214 C3169.85,357.537 3172.6,356.747 3174.81,356.11 C3179.15,354.861 3179.71,354.699 3180.39,349.273 C3180.79,346.044 3176.57,343.613 3171.94,341.47 C3170.6,340.853 3169.7,340.435 3169,339.874 C3169.22,340.087 3168.94,339.999 3168.62,339.901 C3165.86,339.067 3159.4,337.113 3156.69,330.544 C3154,324.033 3155.77,315.237 3162.08,303.658 C3166.8,294.984 3173.04,289.962 3180.94,288.876 C3197.13,286.514 3213.14,302.217 3213.82,302.886 C3215.26,304.324 3215.25,306.647 3213.8,308.086 C3212.37,309.505 3210.01,309.531 3208.55,308.094 C3208.42,307.954 3194.48,294.321 3181.98,296.16 C3176.31,296.897 3172.2,300.55 3168.61,307.143 C3162.24,318.828 3162.34,324.794 3163.56,327.741 C3164.83,330.829 3167.84,331.966 3170.8,332.863 C3171.96,333.216 3172.89,333.491 3173.69,334.152 C3173.86,334.247 3174.42,334.49 3175.1,334.803 C3179.57,336.874 3188.87,341.178 3187.76,350.15 C3186.56,359.719 3182.84,361.455 3176.85,363.18 C3174.85,363.755 3172.57,364.411 3169.87,365.773 C3168.24,366.597 3167.85,367.456 3167.71,368.026 C3166.77,371.711 3171.69,378.738 3174.63,382.933 L3175.68,384.439 C3176.84,386.113 3176.41,388.403 3174.71,389.555 C3174.27,389.858 3173.78,390.051 3173.28,390.143" id="Fill-148" fill="#E87A6B"></path>
        <path d="M3199.19,751.882 C3204.55,650.563 3294.37,494.331 3325.5,460.822 C3325.5,460.822 3479.09,426.799 3629.21,558.616 C3738.09,654.219 3902.99,1147.45 3985.37,1411.24 C3989.93,1425.84 4002.77,1444.36 4006.8,1457.44 C4010.6,1469.77 4005.62,1476.76 4008.91,1487.57 C4015.8,1510.23 4040.46,1533.41 4042.55,1548.65 C4044.3,1561.35 4035.95,1578.17 4035.95,1578.17 C4035.95,1578.17 3968.88,1748.46 3749.95,1728.19 C3573.15,1711.81 3490.59,1652.5 3373.55,1665.03 C3375.07,1284.92 3221.55,1036.39 3199.19,751.882" id="Fill-149" fill="#00C2E8"></path>
        <path d="M3346.6,1383.16 C3346.6,1383.16 3575.95,1059.36 3530.95,916.755 L3259.78,1087.25 C3289.8,1171.78 3332.81,1291.96 3346.6,1383.16" id="Fill-150" fill="#03A7C7"></path>
        <path d="M3405.6,458.473 L3362.81,437.653 L3330.36,411.449 C3189.78,597.539 3175.34,703.008 3202.3,785.204 C3208.26,663.853 3304.73,488.45 3405.6,458.473" id="Fill-151" fill="#0086A0"></path>
        <path d="M3465.4,975.404 C3599.42,1067.51 3790.72,1248.85 3929.46,1303.12 L3909.08,1368.04 C3740.81,1296.12 3556.95,1130.79 3409.86,1029.61 L3465.4,975.404" id="Fill-152" fill="#151426"></path>
        <path d="M3324.28,581.466 C3400.29,505.415 3546.4,484.978 3624.08,554.179 L3665.89,490.074 C3402.93,412.316 3209.72,545.011 3203.83,767.39 L3324.28,581.466" id="Fill-153" fill="#151426"></path>
        <path d="M3473.88,944.848 C3473.88,944.848 3062.12,1420.18 3039.07,1427.69 C3016.02,1435.2 2993.42,1454.96 2970.33,1469.75 C2803.97,1576.33 2640.46,1612.03 2524.43,1651.02 C2465.31,1692.71 2442.76,1723.67 2397.61,1738.49 C2397.61,1738.49 2289.77,1761.7 2267.04,1722.17 C2244.3,1682.63 2256.26,1553.93 2275.42,1552.04 C2294.58,1550.15 2497.46,1530.14 2497.46,1530.14 C2653.06,1492.69 2790.13,1336.83 2921.06,1248.15 L3248.54,731.558 L3473.88,944.848" id="Fill-154" fill="#FFAE92"></path>
        <path d="M3208.17,1305.48 L3580.42,904.746 L3324.28,581.466 C3235.33,670.422 3113.64,942.423 2970.33,1147.92 C3020.7,1228.87 3117.63,1276.63 3208.17,1305.48" id="Fill-155" fill="#00C2E8"></path>
        <path d="M3190.49,1330.67 C3099.96,1301.82 3009.97,1241.95 2959.6,1161 L2998.38,1096.95 C3058.86,1179.35 3163.57,1246.38 3247.06,1273.47 L3190.49,1330.67" id="Fill-156" fill="#0086A0"></path>
        <path d="M2429.47,1725.09 C2419.88,1750.44 2386.25,1761.22 2354.36,1749.16 C2322.46,1737.09 2304.38,1706.76 2313.97,1681.4 C2323.56,1656.05 2357.19,1645.27 2389.09,1657.33 C2420.98,1669.4 2439.06,1699.73 2429.47,1725.09" id="Fill-157" fill="#151426"></path>
        <path d="M3986.91,1283.11 C3961.71,1295.73 3932.24,1294.26 3932.24,1294.26 L3905.23,1380.31 C3953.87,1399.19 4004.03,1428.65 4043.66,1428.75 L3986.91,1283.11" id="Fill-158" fill="#0086A0"></path>
        <g id="Group" transform="translate(4311.391942, 854.380252) rotate(-20.000000) translate(-4311.391942, -854.380252) translate(3976.988786, 731.208204)" fill="#FFFFFF">
            <path d="M252.401807,0.0096380263 C244.769618,-0.0602955468 237.99232,0.26247479 234.631899,0.585245128 C227.940628,1.21464729 225.628658,7.54363565 226.056103,13.8000007 C232.317241,104.374737 211.488004,209.546761 188.822634,209.350409 C171.958695,209.189024 167.670797,159.928891 168.063295,116.134336 C168.278361,90.2454653 169.966637,65.3249055 170.783892,43.3038993 C171.071544,35.124361 168.117061,33.5589248 162.229603,32.8031043 C153.298947,31.6357516 146.895328,31.5792668 137.99962,33.4674732 C131.203504,34.9226295 129.550177,40.4796588 122.272848,57.3793757 C86.0018032,141.608985 51.1340704,209.223991 51.1340704,209.223991 C42.6658084,141.068345 54.870859,75.1425033 65.188697,27.049723 C66.6108273,20.4141028 63.4816029,16.4789945 58.0377202,16.516651 C47.7709606,16.6027231 32.0280583,16.8017648 24.8770815,21.3851036 C18.1723686,25.7021569 15.6614617,30.3392907 13.6505856,39.9578468 C2.17945096,95.0628126 -5.5764017,164.224427 5.02371166,217.852718 C7.31955159,229.450932 9.97025201,232.19986 14.8253889,235.276937 C19.6832141,238.348635 40.6199838,241.245498 48.7495153,241.315432 C57.9839534,241.406883 66.4522154,238.996865 73.5843739,226.989808 C88.687452,201.582403 100.838736,176.199206 123.786382,127.261843 C125.547243,191.28065 134.139168,241.603235 179.074723,242 C238.650963,242.520441 278.392651,93.9465652 279,22.3023093 C279.174957,3.35300077 269.800725,0.173712948 252.401807,0.0096380263" id="Fill-5"></path>
            <path d="M659.260611,82.6408859 C659.260611,82.6408859 639.125403,81.4006179 615.944624,80.1791827 C615.944624,80.1791827 620.860047,54.4806155 623.243771,43.9988715 C624.422181,38.8709958 621.750581,33.7458104 615.269325,32.1100557 C608.844569,30.4904433 594.031039,30.2590701 589.045665,30.781005 C584.897015,31.2114668 580.839841,33.6570277 579.876666,37.9562645 C577.439132,48.6909047 574.893982,61.6208999 571.848411,78.1829163 C563.247093,77.895045 554.882534,77.7524545 549.079268,77.8035718 C543.666114,77.8600699 541.083298,80.5908117 539.945244,85.0514718 C538.788357,89.4932991 537.825182,95.8399197 537.397403,102.423294 C537.079932,107.403199 542.506537,109.829927 548.116092,109.671194 C548.116092,109.671194 554.987461,109.418298 565.776101,108.987836 C563.693705,118.409568 559.493938,143.658841 557.83663,159.373385 C547.830906,191.978174 527.429345,215.92799 510.035689,215.766567 C499.389642,215.677784 493.085955,209.293498 493.247381,190.124498 C493.478758,163.565007 499.871229,130.042797 509.056371,96.4721604 C521.857456,66.3855736 529.369148,32.8848869 529.495598,17.670754 C529.546717,11.9536837 527.854434,5.53442265 521.020731,4.11389884 C508.663568,1.53919942 496.895609,1.89971114 488.635977,4.38024705 C481.248045,6.61057706 479.682213,14.3427465 478.754013,18.4644178 C474.322868,38.2791109 467.061387,73.3967195 461.911896,104.20433 C450.983353,117.223108 438.448621,126.319303 424.972237,128.46085 C423.228836,87.6046481 399.620277,69.8561715 366.880386,69.5683002 C309.393883,69.0463654 272.30894,119.95385 271.81121,177.444708 C271.402264,224.020671 296.646606,243.660489 333.642764,244.002168 C377.313889,244.378822 410.088756,213.662685 422.712273,156.927825 C435.104412,154.519929 445.874219,148.60377 455.201954,140.346976 C455.201954,140.346976 447.937782,175.50494 447.760213,196.183247 C447.475027,227.528934 460.789985,245.115988 492.37568,245.385026 C518.367963,245.6164 541.207058,227.491269 555.576666,205.33594 C559.13611,234.47013 574.232135,246.122192 598.924938,246.342125 C621.607988,246.536512 643.578072,232.347416 659.241778,206.45245 C662.376134,201.29229 664.654932,196.75899 662.733962,194.493685 C658.283984,189.298549 649.755308,186.546284 647.368893,190.807856 C637.008032,209.366138 626.006847,216.791604 614.077463,216.683988 C604.63942,216.614038 597.057777,210.931943 597.20037,194.566325 C597.396772,171.009305 611.212151,107.459697 611.212151,107.459697 C622.872492,107.13416 635.832312,106.846289 648.151809,106.687556 C658.959283,106.523443 666.62971,103.303051 668.591037,93.0526798 C669.745233,86.9562651 666.204622,83.0202303 659.260611,82.6408859 M340.387682,218.734677 C327.161509,218.626447 318.420289,207.133118 318.61669,184.512352 C318.990661,141.121807 334.834627,94.580819 362.573001,94.8326893 C365.688524,94.852548 368.446219,95.3018425 370.886442,96.2892142 C370.43983,97.9626343 370.087383,99.3481831 369.9421,100.120324 C365.580906,124.705071 370.512472,140.422306 382.191646,149.195655 C375.852983,187.245785 358.728371,218.895486 340.387682,218.734677" id="Fill-7"></path>
        </g>
    </g>
</svg>